# AST/ASF file generated using VICON BodyLanguage
# -----------------------------------------------
:version 1.10
:name VICON
:units
  mass 1.0
  length 0.45
  angle deg
:documentation
   .ast/.asf automatically generated from VICON data using
   VICON BodyBuilder and BodyLanguage model FoxedUp or BRILLIANT.MOD
:root
   order TX TY TZ RX RY RZ
   axis XYZ
   position 0 0 0  
   orientation 0 0 0 
:bonedata
  begin
     id 1 
     name lhipjoint
     direction 0.700308 -0.549349 0.455834 
     length 2.59063 
     axis 0 0 0  XYZ
  end
  begin
     id 2 
     name lfemur
     direction 0.34202 -0.939693 0  
     length 6.31066  
     axis 0 0 20  XYZ
    dof rx ry rz
    limits (-160.0 20.0)
           (-70.0 70.0)
           (-60.0 70.0)
  end
  begin
     id 3 
     name ltibia
     direction 0.34202 -0.939693 0   
     length 7.36093   
     axis 0 0 20   XYZ
    dof rx
    limits (-10.0 170.0)
  end
  begin
     id 4 
     name lfoot
     direction 0.0905332 -0.248738 0.96433   
     length 2.0233   
     axis -90 7.62852e-016 20   XYZ
    dof rx rz
    limits (-45.0 90.0)
           (-70.0 20.0)
  end
  begin
     id 5 
     name ltoes
     direction 1.53573e-011 -4.21855e-011 1   
     length 1.01524   
     axis -90 7.62852e-016 20   XYZ
    dof rx
    limits (-90.0 20.0)
  end
  begin
     id 6 
     name rhipjoint
     direction -0.61416 -0.607328 0.503944   
     length 2.34332  
     axis 0 0 0  XYZ 
  end
  begin
     id 7 
     name rfemur
     direction -0.34202 -0.939693 0   
     length 6.58548   
     axis 0 0 -20   XYZ
    dof rx ry rz
    limits (-160.0 20.0)
           (-70.0 70.0)
           (-70.0 60.0)
  end
  begin
     id 8 
     name rtibia
     direction -0.34202 -0.939693 0   
     length 7.20707   
     axis 0 0 -20   XYZ
    dof rx
    limits (-10.0 170.0)
 end
 begin
     id 9 
     name rfoot
     direction -0.136772 -0.375778 0.916561   
     length 1.92184  
     axis -90 -7.62852e-016 -20   XYZ
    dof rx rz
    limits (-45.0 90.0)
           (-20.0 70.0)
  end
  begin
     id 10 
     name rtoes
     direction -1.53535e-011 -4.21828e-011 1   
     length 0.951089   
     axis -90 -7.62852e-016 -20   XYZ
    dof rx
    limits (-90.0 20.0)
  end
  begin
     id 11 
     name lowerback
     direction -0.0444974 0.988086 -0.147332   
     length 1.9609   
     axis 0 0 0   XYZ
    dof rx ry rz
    limits (-20.0 45.0)
           (-30.0 30.0)
           (-30.0 30.0)
  end
  begin
     id 12 
     name upperback
     direction 0.00613146 0.999513 0.0306081   
     length 1.94944   
     axis 0 0 0   XYZ
    dof rx ry rz
    limits (-20.0 45.0)
           (-30.0 30.0)
           (-30.0 30.0)
  end
  begin
     id 13 
     name thorax
     direction 0.0254621 0.994518 0.101418   
     length 2.0119   
     axis 0 0 0   XYZ
    dof rx ry rz
    limits (-20.0 45.0)
           (-30.0 30.0)
           (-30.0 30.0)
  end
  begin
     id 14 
     name lowerneck
     direction 0.0168698 0.977854 0.208608   
     length 1.6375   
     axis 0 0 0   XYZ
    dof rx ry rz
    limits (-20.0 45.0)
           (-30.0 30.0)
           (-30.0 30.0)
  end
  begin
     id 15 
     name upperneck
     direction -0.0283988 0.989338 -0.142843   
     length 1.6851   
     axis 0 0 0   XYZ
    dof rx ry rz
    limits (-20.0 45.0)
           (-30.0 30.0)
           (-30.0 30.0)
  end
  begin
     id 16
     name head
     direction -0.0129422 0.99741 -0.0707489  
     length 1.69029  
     axis 0 0 0   XYZ
    dof rx ry rz
    limits (-20.0 45.0)
           (-30.0 30.0)
           (-30.0 30.0)
  end
  begin
     id 17 
     name lclavicle
     direction 0.820295 0.564628 -0.0911715  
     length 3.16484  
     axis 0 0 0   XYZ
    dof ry rz
    limits (-20.0 10.0)
           (0.0 20.0)
  end
  begin
     id 18 
     name lhumerus
     direction 1 -4.48969e-011 1.00186e-027   
     length 5.17853   
     axis 180 -30 -90   XYZ
    dof rx ry rz
    limits (-60.0 90.0)
           (-90.0 90.0)
           (-90.0 90.0)
  end
  begin
     id 19
     name lradius
     direction 1 -4.48966e-011 -1.52922e-027   
     length 3.40399   
     axis 180 -30 -90   XYZ
    dof rx
    limits (-10.0 170.0)
  end
  begin
     id 20
     name lwrist
     direction 1 -4.48981e-011 -3.80893e-027   
     length 1.70199   
     axis 1.1049e-015 90 90   XYZ
    dof ry
    limits (-180.0 0.0)
 end
  begin
     id 21 
     name lhand
     direction 1 -4.48957e-011 -7.61786e-027   
     length 0.708964   
     axis 4.86085e-015 90 90   XYZ
    dof rx rz
    limits (-90.0 90.0)
           (-45.0 45.0)
  end
  begin
     id 22 
     name lfingers
     direction 1 -4.48929e-011 -1.52357e-026   
     length 0.571585   
     axis 9.7217e-015 90 90   XYZ
    dof rx
    limits (0.0 90.0)
  end
  begin
     id 23
     name lthumb
     direction 0.707107 -6.34905e-011 0.707107   
     length 0.820685   
     axis -90 45 2.85299e-015   XYZ
    dof rx rz
    limits (-45.0 45.0)
           (-45.0 45.0)
  end
  begin
     id 24 
     name rclavicle
     direction -0.858602 0.463947 -0.218075   
     length 3.35137  
     axis 0 0 0   XYZ 
    dof ry rz
    limits (-10.0 20.0)
           (-20.0 0.0)
  end
  begin
     id 25 
     name rhumerus
     direction -1 -4.48969e-011 -1.98511e-027  
     length 5.42351   
     axis 180 30 90   XYZ
    dof rx ry rz
    limits (-90.0 60.0)
           (-90.0 90.0)
           (-90.0 90.0)
  end
  begin
     id 26 
     name rradius
     direction -1 -4.48961e-011 -2.82624e-027   
     length 3.42066   
     axis 180 30 90   XYZ
    dof rx
    limits (-10.0 170.0)
  end
  begin
     id 27 
     name rwrist
     direction -1 -4.48966e-011 -3.80893e-027   
     length 1.71033   
     axis 1.1049e-015 -90 -90   XYZ
    dof ry
    limits (-180.0 0.0)
  end
  begin
     id 28
     name rhand
     direction -1 -4.48964e-011 -7.61786e-027   
     length 0.743608   
     axis 4.86085e-015 -90 -90   XYZ
    dof rx rz
    limits (-90.0 90.0)
           (-45.0 45.0)
  end
  begin
     id 29
     name rfingers
     direction -1 -4.48961e-011 -1.52357e-026   
     length 0.599516   
     axis 9.7217e-015 -90 -90   XYZ
    dof rx
    limits (0.0 90.0)
  end
  begin
     id 30
     name rthumb
     direction -0.707107 -6.34913e-011 0.707107   
     length 0.860789   
     axis -90 -45 -2.85299e-015   XYZ
    dof rx rz
    limits (-45.0 45.0)
           (-45.0 45.0)
  end
:hierarchy
  begin
    root lhipjoint rhipjoint lowerback
    lhipjoint lfemur
    lfemur ltibia
    ltibia lfoot
    lfoot ltoes
    rhipjoint rfemur
    rfemur rtibia
    rtibia rfoot
    rfoot rtoes
    lowerback upperback
    upperback thorax
    thorax lowerneck lclavicle rclavicle
    lowerneck upperneck
    upperneck head
    lclavicle lhumerus
    lhumerus lradius
    lradius lwrist
    lwrist lhand lthumb
    lhand lfingers
    rclavicle rhumerus
    rhumerus rradius
    rradius rwrist
    rwrist rhand rthumb
    rhand rfingers
  end

#!OML:ASF E:\mmandel\Project 1\Capture day 1\Session 2\Subject.ASF
:FULLY-SPECIFIED
:DEGREES
416
root 9.15354 9.93515 -0.258332 176.695 66.3909 147.024
lowerback 49.0287 -4.95554 0.812598
upperback 3.95738 -3.78 2.15689
thorax -16.0989 -1.04039 3.72989
lowerneck -19.4964 -2.85638 1.53314
upperneck -10.543 -3.42743 -3.71204
head -0.259459 -1.45879 -1.63627
rclavicle 3.33958e-014 2.42517e-014
rhumerus 37.5913 2.94433 -83.5078
rradius 19.0275
rwrist -11.6388
rhand -27.0793 25.4255
rfingers 7.12502
rthumb -0.496655 -4.55364
lclavicle 3.33958e-014 2.42517e-014
lhumerus 56.212 -12.8749 23.4667
lradius 41.7767
lwrist 24.1727
lhand -23.0315 321.166
lfingers 7.12502
lthumb 3.41271 -8.88182
rfemur -23.2002 -71.8943 -27.2747
rtibia 131.233
rfoot -30.7662 11.2956
rtoes -4.22577
lfemur -95.9109 30.3538 -16.6522
ltibia 113.254
lfoot -19.6787 -29.3978
ltoes -12.2567
417
root 9.04022 9.96156 -0.279632 176.816 66.41 147.203
lowerback 49.0388 -4.95699 1.16671
upperback 3.97461 -3.58666 2.16839
thorax -16.1012 -0.977707 3.48116
lowerneck -19.641 -2.83052 1.25926
upperneck -10.2735 -3.33285 -3.6734
head -0.140201 -1.40741 -1.57624
rclavicle 4.77083e-014 -2.90226e-014
rhumerus 38.3593 1.74409 -83.7158
rradius 18.4649
rwrist -10.696
rhand -26.5036 25.0237
rfingers 7.12502
rthumb 0.0593615 -4.95599
lclavicle 4.77083e-014 -2.90226e-014
lhumerus 56.0493 -12.9503 23.5435
lradius 42.1099
lwrist 24.217
lhand -23.5297 321.158
lfingers 7.12502
lthumb 2.93158 -8.88272
rfemur -21.8148 -72.7662 -28.9876
rtibia 131.211
rfoot -30.9771 12.3005
rtoes -2.46169
lfemur -96.4096 29.7763 -17.0677
ltibia 113.153
lfoot -21.8472 -27.4771
ltoes -19.2394
418
root 8.92408 9.98625 -0.3044 176.923 66.5467 147.589
lowerback 49.3092 -4.98327 1.64792
upperback 4.01435 -3.34706 2.09287
thorax -16.1279 -0.896295 3.05613
lowerneck -19.6804 -3.02516 1.06671
upperneck -10.362 -3.54183 -3.43427
head -0.163761 -1.49813 -1.47559
rclavicle -1.59028e-015 -1.86858e-014
rhumerus 39.0712 0.636446 -83.8271
rradius 18.0622
rwrist -10.0614
rhand -25.9399 24.7081
rfingers 7.12502
rthumb 0.603773 -5.27082
lclavicle -1.59028e-015 -1.86858e-014
lhumerus 56.0298 -13.0034 23.3724
lradius 42.5458
lwrist 24.44
lhand -23.8645 321.093
lfingers 7.12502
lthumb 2.60821 -8.94355
rfemur -22.6853 -73.1361 -28.3534
rtibia 131.161
rfoot -31.3338 12.0223
rtoes -3.39715
lfemur -96.508 29.1485 -17.078
ltibia 113.058
lfoot -23.4295 -25.7179
ltoes -24.3547
419
root 8.80898 10.0154 -0.328064 176.988 66.7175 147.994
lowerback 49.7878 -4.92572 2.00333
upperback 3.96273 -3.04449 2.10862
thorax -16.2885 -0.781053 2.77122
lowerneck -19.5896 -3.07452 0.95477
upperneck -10.2744 -3.591 -3.57108
head -0.150153 -1.52298 -1.50278
rclavicle 3.18055e-015 -3.65764e-014
rhumerus 39.6937 -0.0616781 -83.4584
rradius 17.7997
rwrist -9.91787
rhand -25.3871 24.2163
rfingers 7.12502
rthumb 1.13766 -5.7604
lclavicle 3.18055e-015 -3.65764e-014
lhumerus 55.8731 -13.1398 23.3122
lradius 43.0496
lwrist 24.7096
lhand -23.9568 320.936
lfingers 7.12502
lthumb 2.5191 -9.09926
rfemur -25.4655 -73.1813 -25.7232
rtibia 131
rfoot -31.5716 10.712
rtoes -5.82555
lfemur -96.5129 28.6419 -17.0425
ltibia 112.916
lfoot -22.8481 -25.7164
ltoes -21.9658
420
root 8.6915 10.0459 -0.355109 176.767 66.7865 148.09
lowerback 50.1476 -4.94084 2.30722
upperback 3.98515 -2.85889 2.09642
thorax -16.3315 -0.710958 2.52944
lowerneck -19.7 -3.31976 0.630808
upperneck -10.1725 -3.84419 -3.30444
head -0.0969113 -1.63857 -1.37709
rclavicle -6.36111e-014 2.38542e-015
rhumerus 40.4273 -0.987827 -83.4461
rradius 17.5573
rwrist -9.27048
rhand -24.8188 23.5652
rfingers 7.12502
rthumb 1.68662 -6.40783
lclavicle -6.36111e-014 2.38542e-015
lhumerus 55.6968 -13.1543 23.1302
lradius 43.6204
lwrist 25.1435
lhand -23.9972 320.969
lfingers 7.12502
lthumb 2.4801 -9.066
rfemur -24.8193 -73.5797 -26.6525
rtibia 130.853
rfoot -31.7263 10.943
rtoes -5.56483
lfemur -96.5296 28.0129 -17.2091
ltibia 112.775
lfoot -22.5238 -25.5114
ltoes -20.2836
421
root 8.5704 10.0722 -0.387479 176.626 66.8918 148.272
lowerback 50.4863 -4.98481 2.70211
upperback 4.02702 -2.65867 2.06903
thorax -16.346 -0.63952 2.21974
lowerneck -19.7037 -3.03357 1.20028
upperneck -10.1498 -3.59177 -4.28189
head -0.104213 -1.54109 -1.7838
rclavicle 1.43125e-014 4.53229e-014
rhumerus 41.125 -2.38504 -83.9684
rradius 17.3977
rwrist -8.03389
rhand -24.2955 23.0604
rfingers 7.12502
rthumb 2.19195 -6.90813
lclavicle 1.43125e-014 4.53229e-014
lhumerus 55.5168 -13.135 23.1973
lradius 44.1594
lwrist 25.3823
lhand -24.0042 321.118
lfingers 7.12502
lthumb 2.47333 -8.91694
rfemur -21.6264 -74.1424 -30.113
rtibia 130.785
rfoot -32.1909 12.6781
rtoes -3.6071
lfemur -96.4979 27.3622 -17.2392
ltibia 112.664
lfoot -22.793 -25.0881
ltoes -20.8505
422
root 8.44529 10.1006 -0.421325 176.803 67.015 148.74
lowerback 50.8644 -5.02781 3.18212
upperback 4.01352 -2.39659 2.10466
thorax -16.4283 -0.548931 1.91506
lowerneck -19.3369 -3.18916 1.46767
upperneck -10.8585 -3.86173 -4.66903
head -0.416991 -1.66214 -1.95875
rclavicle 1.03368e-013 4.29375e-014
rhumerus 41.809 -3.60705 -84.2498
rradius 17.2933
rwrist -7.15736
rhand -23.7606 22.6951
rfingers 7.12502
rthumb 2.70855 -7.26746
lclavicle 1.03368e-013 4.29375e-014
lhumerus 55.2084 -13.2449 23.6036
lradius 44.5673
lwrist 25.1577
lhand -24.133 321.062
lfingers 7.12502
lthumb 2.34891 -8.97151
rfemur -18.2576 -74.6329 -33.5654
rtibia 130.687
rfoot -32.643 14.6798
rtoes -1.23809
lfemur -96.5312 26.7087 -17.1397
ltibia 112.519
lfoot -21.958 -25.6577
ltoes -16.7952
